<?xml version="1.0" standalone="no"?>
<!DOCTYPE svg PUBLIC "-//W3C//DTD SVG 20010904//EN"
 "http://www.w3.org/TR/2001/REC-SVG-20010904/DTD/svg10.dtd">
<svg version="1.0" xmlns="http://www.w3.org/2000/svg"
 width="700.000000pt" height="700.000000pt" viewBox="0 0 700.000000 700.000000"
 preserveAspectRatio="xMidYMid meet">
<metadata>
Created by potrace 1.14, written by Peter Selinger 2001-2017
</metadata>
<g transform="translate(0.000000,700.000000) scale(0.100000,-0.100000)"
fill="#000000" stroke="none">
<path d="M3429 5896 c-2 -2 -47 -7 -99 -11 -52 -4 -104 -9 -115 -11 -11 -2
-56 -11 -100 -19 -504 -91 -986 -331 -1359 -675 -364 -336 -621 -734 -766
-1187 -48 -152 -80 -280 -96 -393 -2 -19 -6 -44 -9 -55 -25 -123 -34 -399 -13
-442 38 -80 144 -95 206 -28 17 19 32 45 33 57 1 13 2 57 4 98 8 209 33 379
86 574 161 592 541 1108 1069 1448 259 168 619 308 905 354 28 4 52 9 55 9 5
1 82 10 175 21 87 9 365 4 480 -10 815 -97 1541 -604 1920 -1341 83 -162 126
-270 195 -500 13 -46 47 -214 55 -275 4 -30 9 -64 11 -75 2 -11 6 -83 10 -160
8 -189 29 -230 121 -241 48 -6 100 21 124 65 15 27 17 53 13 159 -2 70 -6 141
-8 157 -3 17 -8 57 -12 90 -3 33 -8 69 -10 80 -3 11 -7 36 -10 55 -3 19 -12
64 -20 100 -9 36 -17 72 -19 81 -2 9 -13 49 -25 90 -198 678 -650 1258 -1260
1616 -300 175 -670 304 -1005 348 -27 4 -63 9 -80 11 -41 5 -451 14 -456 10z"/>
<path d="M3327 5573 c-2 -1 -40 -7 -117 -18 -198 -28 -572 -148 -697 -225 -56
-34 -88 -105 -72 -164 7 -26 7 -27 -9 -12 -57 51 -137 55 -207 9 -224 -147
-493 -415 -643 -640 -50 -76 -48 -155 5 -209 17 -17 16 -17 -17 -12 -40 7
-101 -11 -132 -39 -69 -61 -217 -490 -252 -733 -29 -196 -28 -274 2 -318 51
-71 -29 -66 1136 -68 l1050 -1 24 24 c20 20 23 30 18 59 -6 29 -4 34 12 34 26
0 55 34 55 64 0 22 1 23 14 10 19 -19 63 -10 85 16 16 20 17 20 27 2 12 -22
58 -34 82 -21 13 7 18 2 22 -21 7 -31 51 -61 76 -52 11 4 11 0 -2 -18 -19 -28
-6 -73 26 -87 33 -14 2095 -10 2127 5 85 39 102 91 85 257 -34 322 -196 807
-288 864 -40 24 -92 33 -124 20 l-25 -9 26 30 c52 62 47 132 -16 224 -115 168
-271 336 -472 504 -73 61 -183 133 -218 142 -47 13 -101 0 -135 -32 l-25 -23
7 38 c9 49 -16 116 -53 144 -61 45 -373 167 -477 187 -11 2 -40 9 -65 16 -25
7 -56 14 -70 16 -14 3 -47 9 -75 14 -66 13 -103 18 -206 26 -71 5 -93 3 -123
-11 -39 -19 -67 -53 -83 -100 l-10 -30 -7 37 c-8 44 -61 94 -108 103 -28 4
-146 3 -151 -2z"/>
<path d="M1300 2810 c-195 -3 -362 -9 -371 -13 -9 -4 -26 -22 -39 -40 -44 -58
-27 -143 37 -184 25 -17 80 -18 827 -18 l801 0 0 128 0 127 -135 0 c-74 0
-277 1 -450 3 -173 1 -475 0 -670 -3z"/>
<path d="M3428 2810 l-767 -5 47 -125 47 -125 1737 0 c1681 0 1738 1 1772 19
38 20 66 68 66 114 0 36 -37 93 -72 110 -31 15 -1480 21 -2830 12z"/>
<path d="M2620 2213 l0 -503 45 0 45 0 2 287 3 287 124 -294 c68 -162 130
-308 137 -325 7 -16 38 -91 69 -165 105 -249 93 -286 92 290 l-2 505 -42 1
c-37 2 -43 -1 -44 -20 0 -11 0 -142 0 -290 0 -148 -1 -267 -3 -265 -2 2 -27
60 -56 129 -28 69 -58 139 -65 155 -8 17 -73 172 -145 345 -73 173 -138 326
-146 340 -11 21 -13 -50 -14 -477z"/>
<path d="M5776 2309 c-3 -13 -28 -143 -56 -289 -29 -146 -54 -275 -57 -286 -4
-19 0 -22 41 -22 25 -1 46 2 47 6 0 4 2 14 4 22 2 8 15 82 29 165 15 82 28
150 29 152 2 1 16 -28 32 -65 15 -37 41 -94 55 -127 15 -33 38 -84 50 -112 12
-29 26 -53 31 -53 5 0 16 17 24 38 9 20 43 99 77 175 66 146 71 150 84 58 9
-63 24 -154 35 -208 l10 -51 45 1 c49 1 47 -5 28 92 -4 25 -51 291 -80 455 -4
25 -9 48 -10 53 -1 4 -2 10 -3 15 -1 4 -24 -42 -52 -103 -27 -60 -73 -161
-101 -223 -38 -83 -54 -109 -61 -97 -4 8 -43 95 -87 193 -43 97 -85 190 -93
206 l-16 29 -5 -24z"/>
<path d="M2251 2298 c-5 -13 -46 -102 -91 -198 -163 -345 -180 -382 -180 -385
0 -2 21 -3 46 -3 l46 0 32 68 31 69 90 3 c163 6 158 7 193 -72 l31 -68 46 0
c25 0 45 2 45 5 0 3 -6 19 -14 36 -8 18 -55 122 -104 232 -50 110 -104 230
-120 268 -17 37 -33 67 -37 67 -3 0 -9 -10 -14 -22z m64 -277 c30 -70 32 -81
17 -82 -91 -4 -152 -3 -152 3 0 4 19 48 42 98 30 66 44 87 50 77 4 -9 24 -52
43 -96z"/>
<path d="M1102 2299 c-139 -25 -230 -131 -240 -276 -8 -126 51 -233 162 -291
44 -22 63 -26 136 -26 73 0 93 4 140 28 125 63 187 201 155 342 -36 157 -188
253 -353 223z m146 -94 c81 -34 126 -106 124 -200 -1 -71 -19 -118 -62 -162
-52 -53 -156 -73 -231 -45 -165 64 -176 322 -17 401 52 25 132 28 186 6z"/>
<path d="M3490 2300 c-54 -10 -122 -44 -159 -81 -86 -85 -112 -238 -59 -349
53 -111 127 -162 243 -166 162 -6 278 95 292 255 l5 57 -118 -1 -119 0 -1 -43
-2 -43 63 2 c34 1 67 -1 74 -5 19 -12 -26 -83 -71 -113 -71 -48 -187 -34 -244
29 -79 86 -81 223 -4 310 79 90 227 92 309 5 l23 -26 34 22 c19 12 34 25 34
28 0 10 -54 64 -80 80 -56 35 -149 51 -220 39z"/>
<path d="M4739 2299 c-93 -14 -177 -78 -222 -169 -30 -62 -31 -185 -1 -251 31
-66 78 -114 142 -146 48 -23 70 -28 137 -28 68 0 89 4 138 29 180 88 221 338
79 480 -57 58 -110 81 -207 90 -11 1 -41 -1 -66 -5z m157 -104 c81 -40 122
-122 110 -219 -9 -72 -42 -125 -99 -160 -41 -25 -59 -30 -110 -29 -65 0 -126
23 -159 60 -74 81 -74 226 -1 309 57 66 170 83 259 39z"/>
<path d="M1579 2281 c-1 -20 -1 -542 0 -558 1 -8 17 -13 45 -13 l43 0 1 98 c0
129 1 142 10 142 6 0 50 -60 87 -119 6 -9 28 -40 49 -68 37 -51 39 -53 87 -53
27 0 49 3 49 6 0 4 -36 56 -81 116 -80 109 -100 141 -83 136 16 -5 79 40 96
69 15 27 21 65 19 125 -1 36 -62 104 -107 118 -19 7 -75 13 -124 14 -76 2 -90
0 -91 -13z m191 -84 c59 -30 63 -114 7 -148 -36 -21 -106 -26 -108 -6 -3 42
-4 144 -1 155 5 16 70 15 102 -1z"/>
<path d="M3929 2290 c-4 -13 -5 -556 -2 -566 3 -8 54 -11 161 -10 l157 1 0 40
0 40 -105 1 c-58 1 -110 2 -116 3 -7 1 -11 32 -10 89 l1 87 113 3 112 3 0 39
c0 25 -5 40 -12 41 -7 1 -53 2 -103 4 -49 1 -95 3 -102 4 -7 1 -11 25 -10 71
l2 70 116 0 115 0 0 42 -1 43 -157 0 c-87 0 -159 -2 -159 -5z"/>
<path d="M5215 2292 c-3 -3 -5 -135 -5 -294 l0 -289 43 3 42 3 3 118 c1 64 6
117 10 117 4 0 39 -45 77 -101 105 -152 93 -141 152 -137 l51 3 -70 95 c-38
52 -78 107 -89 122 l-20 27 33 14 c123 53 125 244 2 299 -41 17 -216 33 -229
20z m194 -97 c48 -24 56 -86 18 -131 -18 -21 -35 -28 -75 -32 l-52 -5 0 92 0
91 40 0 c23 0 54 -7 69 -15z"/>
<path d="M950 1532 c-83 -36 -112 -140 -57 -201 47 -51 10 -50 1124 -49 780 0
1041 3 1038 12 -2 6 -23 64 -46 129 l-42 117 -1001 -1 c-551 0 -1008 -4 -1016
-7z"/>
<path d="M3202 1412 l3 -127 1520 0 c1476 0 1521 1 1548 19 57 39 73 114 37
174 -41 66 63 62 -1600 62 l-1511 0 3 -128z"/>
</g>
</svg>
