<?xml version="1.0" encoding="UTF-8"?>
<svg id="OrangeORM" xmlns="http://www.w3.org/2000/svg" viewBox="0 0 300 300">
	<defs>
		<style>#boats path {stroke-width: 0px}#name path {fill: #64b756}.lines {fill: #f7931e}.boat1 {fill: #fde4c7}.boat2 {fill: #fcd7ab}.boat3 {fill: #fbc98f}.boat4 {fill: #fabb72}.boat5 {fill: #f9ae56}.boat6 {fill: #f8a13a}#shell {fill: none;stroke-miterlimit: 10;stroke: #f7931e;stroke-linecap: round;stroke-width: 11px}</style>
	</defs>
	<g id="name">
		<path d="M62.78,214.16c0,7.33-5.51,12.94-13.01,12.94s-13.01-5.61-13.01-12.94,5.51-12.94,13.01-12.94,13.01,5.61,13.01,12.94ZM58.95,214.16c0-5.54-3.82-9.42-9.19-9.42s-9.19,3.89-9.19,9.42,3.82,9.42,9.19,9.42,9.19-3.89,9.19-9.42Z"/>
		<path d="M72.04,201.67c3.04,0,4.99.37,6.6,1.46,2.74,1.83,2.96,4.79,2.96,5.87,0,3.59-2.21,6.21-5.55,6.96l7.8,10.66h-4.61l-7.16-10.21h-.67v10.21h-3.82v-24.95h4.46ZM71.4,213.11h1.2c1.05,0,5.32-.11,5.32-4.08,0-3.51-3.34-3.85-5.21-3.85h-1.31v7.93Z"/>
		<path d="M102.29,220.59h-10.69l-2.74,6.02h-4.12l12.45-26.4,11.85,26.4h-4.12l-2.62-6.02ZM100.75,217l-3.71-8.45-3.86,8.45h7.57Z"/>
		<path d="M153.09,213.63h10.31v.19c0,4.26-1.27,7.74-3.71,10.1-2.59,2.51-5.66,3.18-8.51,3.18-3.64,0-6.22-1.05-8.51-3.4-2.44-2.51-3.71-5.83-3.71-9.42,0-3.89,1.57-7.26,3.64-9.31,2.14-2.17,5.55-3.74,9.41-3.74,2.25,0,4.57.49,6.52,1.57,2.06,1.16,3.34,2.62,4.05,3.74l-3.04,2.13c-.75-1.05-1.87-2.17-3.07-2.84-1.39-.82-2.89-1.08-4.42-1.08-3.26,0-5.36,1.35-6.6,2.58-1.65,1.65-2.66,4.3-2.66,6.99,0,2.51.94,5.01,2.59,6.77,1.72,1.83,3.86,2.51,6.26,2.51,2.17,0,3.97-.64,5.59-2.21,1.39-1.35,1.95-2.8,2.1-4.23h-6.22v-3.52Z"/>
		<path d="M181.99,205.25h-9.97v6.32h9.67v3.59h-9.67v7.85h9.97v3.59h-13.8v-24.95h13.8v3.59Z"/>
		<path d="M218.5,214.16c0,7.33-5.51,12.94-13.01,12.94s-13.01-5.61-13.01-12.94,5.51-12.94,13.01-12.94,13.01,5.61,13.01,12.94ZM214.67,214.16c0-5.54-3.82-9.42-9.19-9.42s-9.19,3.89-9.19,9.42,3.82,9.42,9.19,9.42,9.19-3.89,9.19-9.42Z"/>
		<path d="M227.76,201.67c3.04,0,4.99.37,6.6,1.46,2.74,1.83,2.96,4.79,2.96,5.87,0,3.59-2.21,6.21-5.55,6.96l7.8,10.66h-4.61l-7.16-10.21h-.67v10.21h-3.82v-24.95h4.46ZM227.12,213.11h1.2c1.05,0,5.32-.11,5.32-4.08,0-3.51-3.34-3.85-5.21-3.85h-1.31v7.93Z"/>
		<path d="M242.57,226.61l5.25-26.82,8.7,19.37,8.77-19.37,4.72,26.82h-3.9l-2.55-15.03-7.27,16.19-7.2-16.23-2.62,15.07h-3.9Z"/>
		<path d="M112.34,226.74v-43.57l18.26,43.36v-24.95h3.85v43.42l-18.26-43.36v25.1h-3.85Z"/>
	</g>
	<g>
		<path class="lines" d="M109.51,179.5H42.49c-3.04,0-5.5,2.46-5.5,5.5s2.46,5.5,5.5,5.5h67.03v-11Z"/>
		<path class="lines" d="M265.82,179.5H114.02l3.97,11h147.83c3.04,0,5.5-2.46,5.5-5.5s-2.46-5.5-5.5-5.5Z"/>
		<path class="lines" d="M265.82,234.06h-128.65v11h128.65c3.04,0,5.5-2.46,5.5-5.5s-2.46-5.5-5.5-5.5Z"/>
		<path class="lines" d="M127.22,234.06H42.49c-3.04,0-5.5,2.46-5.5,5.5s2.46,5.5,5.5,5.5h88.7l-3.97-11Z"/>
	</g>
	<path id="shell" d="M266.1,164.61c0-61.4-50.53-111.93-111.93-111.93s-111.93,50.53-111.93,111.93"/>
	<g id="boats">
		<path class="boat1" d="M163.25,160.02l75.59-43.64c3.34-1.93,7.63-.64,9.33,2.82,2.98,6.07,5.36,12.42,7.11,18.97,1.75,6.54,2.87,13.24,3.32,19.98.26,3.85-2.81,7.11-6.66,7.11h-87.28c-2.87,0-3.89-3.8-1.4-5.24Z"/>
		<path class="boat2" d="M159.42,156.19l43.64-75.59c1.94-3.37,6.33-4.34,9.55-2.17,5.59,3.76,10.81,8.06,15.58,12.83,4.77,4.77,9.07,9.99,12.83,15.58,2.17,3.23,1.19,7.61-2.17,9.55l-75.59,43.64c-2.49,1.44-5.27-1.35-3.84-3.84Z"/>
		<path class="boat3" d="M154.18,154.78v-87.28c0-3.86,3.26-6.93,7.11-6.66,6.75.46,13.44,1.57,19.98,3.32,6.54,1.75,12.9,4.14,18.97,7.11,3.46,1.7,4.75,5.99,2.82,9.33l-43.64,75.59c-1.44,2.49-5.24,1.47-5.24-1.4Z"/>
		<path class="boat4" d="M148.94,156.19l-43.64-75.59c-1.93-3.34-.64-7.63,2.82-9.33,6.07-2.98,12.42-5.36,18.97-7.11,6.54-1.75,13.24-2.87,19.98-3.32,3.85-.26,7.11,2.81,7.11,6.66v87.28c0,2.87-3.8,3.89-5.24,1.4Z"/>
		<path class="boat5" d="M145.1,160.02l-75.59-43.64c-3.37-1.94-4.34-6.33-2.17-9.55,3.76-5.59,8.06-10.81,12.83-15.58,4.77-4.77,9.99-9.07,15.58-12.83,3.23-2.17,7.61-1.19,9.55,2.17l43.64,75.59c1.44,2.49-1.35,5.27-3.84,3.84Z"/>
		<path class="boat6" d="M143.7,165.26H56.42c-3.86,0-6.93-3.26-6.66-7.11.46-6.75,1.57-13.44,3.32-19.98,1.75-6.54,4.14-12.9,7.11-18.97,1.7-3.46,5.99-4.75,9.33-2.82l75.59,43.64c2.49,1.44,1.47,5.24-1.4,5.24Z"/>
	</g>
</svg>